<svg xmlns="http://www.w3.org/2000/svg" xmlns:xlink="http://www.w3.org/1999/xlink" viewBox="0 0 420.97 321.95"><defs><style>.cls-1,.cls-30,.cls-47,.cls-49,.cls-50{fill:none;}.cls-2{isolation:isolate;}.cls-3,.cls-37,.cls-39,.cls-4,.cls-44,.cls-57{opacity:0.3;}.cls-3{fill:url(#Degradado_sin_nombre_15);}.cls-4{fill:url(#Degradado_sin_nombre_15-2);}.cls-5,.cls-6{fill:url(#Degradado_sin_nombre_64);}.cls-11,.cls-40,.cls-6,.cls-66{opacity:0.5;}.cls-11,.cls-12,.cls-14,.cls-21,.cls-23,.cls-37,.cls-39,.cls-40,.cls-43,.cls-44,.cls-53,.cls-57,.cls-6,.cls-60,.cls-61,.cls-63,.cls-65,.cls-66,.cls-7,.cls-9{mix-blend-mode:multiply;}.cls-7{fill:url(#Degradado_sin_nombre_64-3);}.cls-8{fill:url(#Degradado_sin_nombre_64-4);}.cls-9{fill:url(#Degradado_sin_nombre_64-5);}.cls-10,.cls-11{fill:url(#Degradado_sin_nombre_64-6);}.cls-12{fill:url(#Degradado_sin_nombre_64-8);}.cls-13{fill:url(#Degradado_sin_nombre_64-9);}.cls-14{fill:url(#Degradado_sin_nombre_64-10);}.cls-15{fill:#dba6a5;}.cls-16,.cls-40,.cls-53{fill:#259aff;}.cls-17{fill:#00307c;}.cls-18,.cls-37{fill:#137cbc;}.cls-19,.cls-21,.cls-39,.cls-43{fill:#edb6b3;}.cls-20,.cls-32,.cls-57,.cls-65,.cls-66{fill:#003aa5;}.cls-21{opacity:0.7;}.cls-22{clip-path:url(#clip-path);}.cls-24{clip-path:url(#clip-path-2);}.cls-25{fill:#7f3322;}.cls-26{fill:#fff;}.cls-27{mix-blend-mode:color-burn;}.cls-28{fill:#3a2719;}.cls-29{fill:#153158;}.cls-30{stroke:#153158;}.cls-30,.cls-49,.cls-50{stroke-linecap:round;stroke-linejoin:round;}.cls-30,.cls-50{stroke-width:2px;}.cls-31,.cls-48{fill:#ededeb;}.cls-32{stroke:#003aa5;stroke-width:0.25px;}.cls-32,.cls-47{stroke-miterlimit:10;}.cls-33{fill:url(#Degradado_sin_nombre_64-11);}.cls-34{clip-path:url(#clip-path-3);}.cls-35{clip-path:url(#clip-path-4);}.cls-36{fill:#fdda42;}.cls-38{clip-path:url(#clip-path-5);}.cls-41{fill:#e2abaa;}.cls-42{clip-path:url(#clip-path-6);}.cls-43{opacity:0.25;}.cls-45{clip-path:url(#clip-path-7);}.cls-46{clip-path:url(#clip-path-8);}.cls-47,.cls-49,.cls-50{stroke:#ededeb;}.cls-47,.cls-49{stroke-width:1.2px;}.cls-48,.cls-53{opacity:0.4;}.cls-51{clip-path:url(#clip-path-9);}.cls-52{clip-path:url(#clip-path-10);}.cls-54{fill:url(#Degradado_sin_nombre_64-12);}.cls-55{clip-path:url(#clip-path-11);}.cls-56{clip-path:url(#clip-path-12);}.cls-58,.cls-60{fill:url(#Degradado_sin_nombre_64-13);}.cls-59,.cls-61{fill:url(#Degradado_sin_nombre_64-14);}.cls-62,.cls-63{fill:url(#Degradado_sin_nombre_64-17);}.cls-64{fill:#4baafc;}</style><linearGradient id="Degradado_sin_nombre_15" x1="8.05" y1="167.13" x2="412.91" y2="167.13" gradientUnits="userSpaceOnUse"><stop offset="0" stop-color="#c2e1fe"/><stop offset="1" stop-color="#259aff" stop-opacity="0"/></linearGradient><linearGradient id="Degradado_sin_nombre_15-2" x1="-1029.53" y1="160.97" x2="-608.56" y2="160.97" gradientTransform="matrix(-1, 0, 0, 1, -608.56, 0)" xlink:href="#Degradado_sin_nombre_15"/><linearGradient id="Degradado_sin_nombre_64" x1="105.65" y1="-57.11" x2="195.98" y2="66.06" gradientTransform="translate(-2.08 118.4) rotate(23.17)" gradientUnits="userSpaceOnUse"><stop offset="0" stop-color="#fdda42"/><stop offset="1" stop-color="#e5a003"/></linearGradient><linearGradient id="Degradado_sin_nombre_64-3" x1="153.21" y1="65.33" x2="153.21" y2="-37.71" xlink:href="#Degradado_sin_nombre_64"/><linearGradient id="Degradado_sin_nombre_64-4" x1="48.19" y1="154.35" x2="161.75" y2="309.2" gradientTransform="matrix(1, 0, 0, 1, 0, 0)" xlink:href="#Degradado_sin_nombre_64"/><linearGradient id="Degradado_sin_nombre_64-5" x1="105.3" y1="308.19" x2="105.3" y2="178.64" gradientTransform="matrix(1, 0, 0, 1, 0, 0)" xlink:href="#Degradado_sin_nombre_64"/><linearGradient id="Degradado_sin_nombre_64-6" x1="-653.7" y1="267.81" x2="-563.38" y2="390.98" gradientTransform="matrix(-0.92, 0.39, 0.39, 0.92, -392.38, 118.4)" xlink:href="#Degradado_sin_nombre_64"/><linearGradient id="Degradado_sin_nombre_64-8" x1="-606.14" y1="390.25" x2="-606.14" y2="287.21" gradientTransform="matrix(-0.92, 0.39, 0.39, 0.92, -392.38, 118.4)" xlink:href="#Degradado_sin_nombre_64"/><linearGradient id="Degradado_sin_nombre_64-9" x1="-777.79" y1="157.35" x2="-664.23" y2="312.2" gradientTransform="matrix(-1, 0, 0, 1, -394.46, 0)" xlink:href="#Degradado_sin_nombre_64"/><linearGradient id="Degradado_sin_nombre_64-10" x1="-720.68" y1="311.19" x2="-720.68" y2="181.64" gradientTransform="matrix(-1, 0, 0, 1, -394.46, 0)" xlink:href="#Degradado_sin_nombre_64"/><clipPath id="clip-path"><path class="cls-1" d="M181.71,133.5h9.63a1.72,1.72,0,0,1,1.72,1.72v21.11a4.14,4.14,0,0,1-4.14,4.14h-4.79a4.14,4.14,0,0,1-4.14-4.14V135.22A1.72,1.72,0,0,1,181.71,133.5Z"/></clipPath><clipPath id="clip-path-2"><path class="cls-1" d="M195.5,128c-.36-1.12-1.66-.82-4,.42a12.63,12.63,0,0,1-10,.26c-2.38-1.07-3.56-1.18-4-.21s2.21,6.62,7.21,7.3a12.88,12.88,0,0,0,3.87-.1C193.57,134.72,195.89,129.18,195.5,128Z"/></clipPath><linearGradient id="Degradado_sin_nombre_64-11" x1="251.74" y1="132.75" x2="236.92" y2="132.75" gradientTransform="matrix(1, 0, 0, 1, 0, 0)" xlink:href="#Degradado_sin_nombre_64"/><clipPath id="clip-path-3"><path class="cls-1" d="M239.54,120.44h9.63a1.72,1.72,0,0,1,1.72,1.72v21.11a4.14,4.14,0,0,1-4.14,4.14H242a4.14,4.14,0,0,1-4.14-4.14V122.17A1.72,1.72,0,0,1,239.54,120.44Z"/></clipPath><clipPath id="clip-path-4"><path class="cls-1" d="M255,114.9c-.42-1.12-2-.82-4.7.42a17.65,17.65,0,0,1-11.91.26c-2.82-1.07-4.22-1.18-4.73-.22s2.63,6.62,8.57,7.31a18.09,18.09,0,0,0,4.59-.1C252.72,121.67,255.47,116.13,255,114.9Z"/></clipPath><clipPath id="clip-path-5"><path class="cls-1" d="M68.82,240.39s-2.4,15-1.46,16.6,16.52,5.7,27.08,3.2,23.2-8.22,23.2-8.22l-26.14-6.9-11.26,1S72.28,243.87,68.82,240.39Z"/></clipPath><clipPath id="clip-path-6"><path class="cls-1" d="M148.78,243.32a93.89,93.89,0,0,1,1.32,10.42c0,3-5.46,6.27-8,6.45S86.35,248,83.49,247.75a39,39,0,0,1-5.32-.84s2.59-4.95,7.4-6.52,10.25.92,13.5,1.68,20.64,3.15,29.73,3A187.39,187.39,0,0,0,148.78,243.32Z"/></clipPath><clipPath id="clip-path-7"><path class="cls-1" d="M104.32,193.71h8.95a1.72,1.72,0,0,1,1.72,1.72v19.69a4.14,4.14,0,0,1-4.14,4.14h-4.11a4.14,4.14,0,0,1-4.14-4.14V195.43A1.72,1.72,0,0,1,104.32,193.71Z"/></clipPath><clipPath id="clip-path-8"><path class="cls-1" d="M118.77,188.45c-.38-1.06-1.74-.78-4.16.4a14.58,14.58,0,0,1-10.52.25c-2.49-1-3.73-1.12-4.17-.21s2.32,6.28,7.56,6.93a14.94,14.94,0,0,0,4.06-.1C116.75,194.87,119.18,189.62,118.77,188.45Z"/></clipPath><clipPath id="clip-path-9"><path class="cls-1" d="M196,210.51h8.58a1.72,1.72,0,0,1,1.72,1.72v18.93a4.14,4.14,0,0,1-4.14,4.14h-3.74a4.14,4.14,0,0,1-4.14-4.14V212.24A1.72,1.72,0,0,1,196,210.51Z"/></clipPath><clipPath id="clip-path-10"><path class="cls-1" d="M209.08,205.41c-.32-1-1.52-.75-3.64.39a11.67,11.67,0,0,1-9.23.24c-2.18-1-3.26-1.08-3.65-.2s2,6.09,6.63,6.72a11.77,11.77,0,0,0,3.56-.09C207.32,211.64,209.45,206.55,209.08,205.41Z"/></clipPath><linearGradient id="Degradado_sin_nombre_64-12" x1="198.81" y1="304.19" x2="198.81" y2="253.06" gradientTransform="matrix(1, 0, 0, 1, 0, 0)" xlink:href="#Degradado_sin_nombre_64"/><clipPath id="clip-path-11"><path class="cls-1" d="M313.36,213.22l-5.24-.47c-1.8-.16-3.13-.14-3-1.95l1-10.79a1.37,1.37,0,0,1,1.48-1.24l9,.82a1.35,1.35,0,0,1,1.24,1.47l-1,9.19A3.27,3.27,0,0,1,313.36,213.22Z"/></clipPath><clipPath id="clip-path-12"><path class="cls-1" d="M298.51,195.2c.37-.92,1.32-.56,2.94.7A8.47,8.47,0,0,0,309,197c1.88-.71,2.78-.71,3,.16s-2.25,5.49-6.07,5.65a8.58,8.58,0,0,1-2.9-.41C299.35,201.18,298.1,196.23,298.51,195.2Z"/></clipPath><linearGradient id="Degradado_sin_nombre_64-13" x1="254.08" y1="269.99" x2="266.25" y2="269.99" gradientTransform="matrix(1, 0, 0, 1, 0, 0)" xlink:href="#Degradado_sin_nombre_64"/><linearGradient id="Degradado_sin_nombre_64-14" x1="-607" y1="280.45" x2="-594.83" y2="280.45" gradientTransform="matrix(-1, 0, 0, 1, -329.2, 0)" xlink:href="#Degradado_sin_nombre_64"/><linearGradient id="Degradado_sin_nombre_64-17" x1="266.92" y1="302.55" x2="266.92" y2="249.58" gradientTransform="matrix(1, 0, 0, 1, 0, 0)" xlink:href="#Degradado_sin_nombre_64"/></defs><title>team-work</title><g class="cls-2"><g id="Layer_2" data-name="Layer 2"><g id="OBJECTS"><path class="cls-3" d="M24.63,291.38a41.53,41.53,0,0,1-15.49-27.2C4.36,228.13,12.7,147.88,88.57,80.71,180.66-.8,276.82,4.82,323.4,25.28c51.31,22.55,83.88,98.12,89.15,165.41,4,50.64-24.94,94.2-73.85,107.93C256.67,321.65,86.42,339.8,24.63,291.38Z"/><path class="cls-4" d="M403.73,290.16a43.13,43.13,0,0,0,16.11-28.28c5-37.48-3.7-120.93-82.6-190.77C241.5-13.65,141.5-7.8,93.08,13.48c-53.36,23.44-87.22,102-92.7,172-4.13,52.66,25.93,97.94,76.78,112.22C162.46,321.64,339.48,340.51,403.73,290.16Z"/><path class="cls-5" d="M175.33,223.7c1.41-8.56-1.12-17.75-7.64-23.69-3.88-3.53-10.94-5.35-12.16-11.07-1-4.93,1.82-9.81,2.51-14.62a27.53,27.53,0,0,0-8.13-23.39c-4.21-4-10.28-6-13.65-10.92-3.11-4.54-3.56-10.26-4.63-15.51-1.52-7.57-6.76-18.42-16.29-16.17-8.08,1.9-10.79,11.79-10.92,19a36.26,36.26,0,0,0,.67,7.64c.57,2.9,1.82,5.67,2.23,8.6a24.51,24.51,0,0,1-.26,9.73c-.78,2.73-2.11,5.28-2.88,8-2.82,10.09-.11,20.88,4.84,29.87,3.29,6,5.68,10.89,4.93,17.91-.59,5.45-2.11,10.84-1.69,16.36.81,10.89,8.79,19.26,18.4,23.51a1,1,0,0,0,.79,0C150,254.65,171.32,243,175.33,223.7Z"/><path class="cls-6" d="M175.33,223.7c1.41-8.56-1.12-17.75-7.64-23.69-3.88-3.53-10.94-5.35-12.16-11.07-1-4.93,1.82-9.81,2.51-14.62a27.53,27.53,0,0,0-8.13-23.39c-4.21-4-10.28-6-13.65-10.92-3.11-4.54-3.56-10.26-4.63-15.51-1.52-7.57-6.76-18.42-16.29-16.17-8.08,1.9-10.79,11.79-10.92,19a36.26,36.26,0,0,0,.67,7.64c.57,2.9,1.82,5.67,2.23,8.6a24.51,24.51,0,0,1-.26,9.73c-.78,2.73-2.11,5.28-2.88,8-2.82,10.09-.11,20.88,4.84,29.87,3.29,6,5.68,10.89,4.93,17.91-.59,5.45-2.11,10.84-1.69,16.36.81,10.89,8.79,19.26,18.4,23.51a1,1,0,0,0,.79,0C150,254.65,171.32,243,175.33,223.7Z"/><path class="cls-7" d="M152.56,261.19q-4.26-16.17-8.49-32.36l0,0a107.91,107.91,0,0,0,10.5-28.23c.29-1.29-1.75-1.56-2-.27a105.74,105.74,0,0,1-9.26,25.59q-3.59-13.71-7.13-27.44a1.55,1.55,0,0,0,.19-.24,126.62,126.62,0,0,0,11.19-29.05c.32-1.28-1.71-1.55-2-.28a124.42,124.42,0,0,1-10.1,26.68q-3.33-12.85-6.63-25.72a136.18,136.18,0,0,0,7.66-20.59c.35-1.25-1.53-2.07-1.89-.8A136.5,136.5,0,0,1,128,166.67q-3.28-12.81-6.55-25.63a1.23,1.23,0,0,0,.26-.33q3.21-6.45,5.82-13.15c.48-1.23-1.4-2-1.88-.81-1.5,3.85-3.16,7.62-4.95,11.33q-2.19-8.58-4.37-17.17c-.32-1.27-2.36-1-2,.25q3,11.86,6,23.72c-3-3.15-6.11-6.22-9.32-9.17-1-.9-2.25.72-1.28,1.6q6.08,5.58,11.63,11.65,2.67,10.44,5.35,20.88a.79.79,0,0,0,.06.22l3,11.67a119.18,119.18,0,0,1-20.4-17.59c-.9-1-2.5.31-1.61,1.28a121.57,121.57,0,0,0,22.78,19.31q3.84,14.86,7.71,29.74l-18-11.69c-1.1-.72-2.38.88-1.28,1.6l20,13q5.81,22.29,11.67,44.56C151,263.23,152.89,262.46,152.56,261.19Z"/><path class="cls-8" d="M47.41,192.25c2.09,3.07,4.9,5.65,6.83,8.83,2,3.36,4,7.46,4.51,11.38.44,3.54.17,7.15.64,10.7,1.73,13.06,10.19,24.19,20.36,32.14,6.77,5.29,12,9.77,14.56,18.26,2,6.59,2.93,13.57,6.14,19.75a32.26,32.26,0,0,0,16.8,14.88h28.17c18.54-7.46,31.2-27.65,27.07-48.08-2.6-10.59-10.07-20-20.54-23.6-6.23-2.16-15.3-.77-19.53-6.79-3.64-5.18-2.75-12.23-4.33-18.13a34.6,34.6,0,0,0-21-23c-6.86-2.58-14.84-1.85-21.17-5.86-5.84-3.71-9.2-10.11-13-15.65-5.5-8-16.92-17.94-26.83-10.63-8.39,6.19-6.63,19-3.24,27.31A45.24,45.24,0,0,0,47.41,192.25Z"/><path class="cls-9" d="M69.91,196.22c-5-2.16-10.13-4.17-15.3-6-1.57-.55-2.25,1.94-.69,2.49q9.78,3.43,19.21,7.71l16.51,21.48a1.37,1.37,0,0,0,.17.23l9.24,12A149.14,149.14,0,0,1,66.77,223.9c-1.51-.68-2.74,1.59-1.22,2.27a152.79,152.79,0,0,0,35.88,11.06q11.79,15.28,23.61,30.56L98.5,263.16c-1.63-.28-2.32,2.21-.69,2.49l29.57,5.16q14.49,18.7,29,37.38h3.24q-10.38-13.33-20.75-26.68s0,0,0-.05a135.89,135.89,0,0,0-1.82-37.82c-.31-1.63-2.8-.94-2.49.68a132.75,132.75,0,0,1,2,34.17q-10.92-14.08-21.8-28.19a1.51,1.51,0,0,0,.09-.38,158.56,158.56,0,0,0-1.43-39.11c-.26-1.64-2.74-.94-2.48.68a156.87,156.87,0,0,1,1.52,35.83q-10.22-13.22-20.38-26.45a171.81,171.81,0,0,0-1.34-27.58c-.21-1.62-2.79-1.64-2.58,0a170.61,170.61,0,0,1,1.41,24.32q-10.14-13.19-20.25-26.38a1.37,1.37,0,0,0,.13-.52q.53-9,.24-18.07c-.06-1.66-2.64-1.66-2.58,0q.24,7.77-.12,15.54-6.78-8.85-13.55-17.69c-1-1.3-3.23,0-2.23,1.3Q60.55,184,69.91,196.22Z"/><path class="cls-10" d="M256.19,223.7c-1.41-8.56,1.11-17.75,7.64-23.69,3.88-3.53,10.94-5.35,12.15-11.07,1-4.93-1.81-9.81-2.5-14.62a27.53,27.53,0,0,1,8.13-23.39c4.21-4,10.27-6,13.64-10.92,3.12-4.54,3.57-10.26,4.63-15.51,1.53-7.57,6.76-18.42,16.3-16.17,8.07,1.9,10.78,11.79,10.92,19a36.93,36.93,0,0,1-.67,7.64c-.58,2.9-1.82,5.67-2.24,8.6a24.51,24.51,0,0,0,.27,9.73c.78,2.73,2.11,5.28,2.87,8,2.82,10.09.12,20.88-4.83,29.87-3.29,6-5.68,10.89-4.93,17.91.59,5.45,2.1,10.84,1.69,16.36-.81,10.89-8.8,19.26-18.4,23.51a1,1,0,0,1-.8,0C281.52,254.65,260.2,243,256.19,223.7Z"/><path class="cls-11" d="M256.19,223.7c-1.41-8.56,1.11-17.75,7.64-23.69,3.88-3.53,10.94-5.35,12.15-11.07,1-4.93-1.81-9.81-2.5-14.62a27.53,27.53,0,0,1,8.13-23.39c4.21-4,10.27-6,13.64-10.92,3.12-4.54,3.57-10.26,4.63-15.51,1.53-7.57,6.76-18.42,16.3-16.17,8.07,1.9,10.78,11.79,10.92,19a36.93,36.93,0,0,1-.67,7.64c-.58,2.9-1.82,5.67-2.24,8.6a24.51,24.51,0,0,0,.27,9.73c.78,2.73,2.11,5.28,2.87,8,2.82,10.09.12,20.88-4.83,29.87-3.29,6-5.68,10.89-4.93,17.91.59,5.45,2.1,10.84,1.69,16.36-.81,10.89-8.8,19.26-18.4,23.51a1,1,0,0,1-.8,0C281.52,254.65,260.2,243,256.19,223.7Z"/><path class="cls-12" d="M279,261.19q4.26-16.17,8.49-32.36l0,0a107.56,107.56,0,0,1-10.5-28.23c-.29-1.29,1.75-1.56,2-.27a105.74,105.74,0,0,0,9.26,25.59q3.58-13.71,7.13-27.44a1.12,1.12,0,0,1-.19-.24A127.11,127.11,0,0,1,284,169.16c-.32-1.28,1.72-1.55,2-.28a123.89,123.89,0,0,0,10.1,26.68q3.33-12.85,6.62-25.72a137.22,137.22,0,0,1-7.65-20.59c-.36-1.25,1.53-2.07,1.89-.8a135.12,135.12,0,0,0,6.58,18.22q3.29-12.81,6.55-25.63a1.23,1.23,0,0,1-.26-.33q-3.21-6.45-5.83-13.15c-.47-1.23,1.41-2,1.89-.81,1.5,3.85,3.16,7.62,4.95,11.33q2.19-8.58,4.37-17.17c.32-1.27,2.36-1,2,.25q-3,11.86-6,23.72c3-3.15,6.1-6.22,9.32-9.17,1-.9,2.25.72,1.28,1.6q-6.07,5.58-11.64,11.65-2.66,10.44-5.35,20.88a.79.79,0,0,1-.05.22l-3,11.67a119.18,119.18,0,0,0,20.4-17.59c.89-1,2.5.31,1.6,1.28A121.51,121.51,0,0,1,301,184.73q-3.84,14.86-7.71,29.74l18-11.69c1.1-.72,2.39.88,1.28,1.6l-20,13q-5.8,22.29-11.67,44.56C280.52,263.23,278.62,262.46,279,261.19Z"/><path class="cls-13" d="M384.11,195.25c-2.1,3.07-4.91,5.65-6.83,8.83-2,3.36-4,7.46-4.51,11.38-.45,3.54-.17,7.15-.65,10.7-1.73,13.06-10.18,24.19-20.36,32.14-6.76,5.29-11.95,9.77-14.55,18.26-2,6.59-2.93,13.57-6.14,19.75a32.26,32.26,0,0,1-16.8,14.88H286.09c-18.53-7.46-31.2-27.65-27.06-48.08,2.6-10.59,10.06-20,20.54-23.6,6.23-2.16,15.29-.77,19.53-6.79,3.64-5.18,2.75-12.23,4.33-18.13a34.6,34.6,0,0,1,21-23c6.86-2.58,14.84-1.85,21.17-5.86,5.84-3.71,9.2-10.11,13-15.65,5.51-8,16.92-17.94,26.84-10.63,8.39,6.19,6.63,19,3.24,27.31A45.82,45.82,0,0,1,384.11,195.25Z"/><path class="cls-14" d="M361.6,199.22c5-2.16,10.13-4.17,15.31-6,1.57-.55,2.25,1.94.69,2.49q-9.78,3.43-19.21,7.71l-16.51,21.48a1,1,0,0,1-.18.23q-4.6,6-9.24,12a149,149,0,0,0,32.29-10.24c1.51-.68,2.74,1.59,1.22,2.27a152.79,152.79,0,0,1-35.88,11.06q-11.79,15.28-23.62,30.56L333,266.16c1.62-.28,2.32,2.21.69,2.49l-29.57,5.16q-14.49,18.7-29,37.38h-3.23q10.38-13.33,20.75-26.68a.09.09,0,0,1,0-.05,135.13,135.13,0,0,1,1.82-37.82c.31-1.63,2.8-.94,2.49.68a132.75,132.75,0,0,0-2,34.17q10.92-14.08,21.81-28.19a1.51,1.51,0,0,1-.09-.38,159,159,0,0,1,1.42-39.11c.26-1.64,2.75-.94,2.49.68a156.31,156.31,0,0,0-1.52,35.83q10.2-13.22,20.38-26.45a173,173,0,0,1,1.33-27.58c.21-1.62,2.8-1.64,2.58,0a172.08,172.08,0,0,0-1.4,24.32q10.13-13.19,20.24-26.38a1.59,1.59,0,0,1-.13-.52q-.52-9-.23-18.07c.05-1.66,2.63-1.66,2.58,0-.17,5.18-.12,10.36.12,15.54q6.76-8.85,13.54-17.69c1-1.3,3.24,0,2.23,1.3Q371,187,361.6,199.22Z"/><polygon class="cls-15" points="166.87 147 170.92 148.19 175.91 150.7 170.66 148.55 166.87 147"/><path class="cls-16" d="M197.9,150.91l4.82-4.75s23.72-6.77,38.63-10.11,16.8-.53,16.8-.53l6.73,11.89s-34.21,10.1-37,9.85-18.09,6.57-18.09,6.57Z"/><polygon class="cls-17" points="241.59 310.19 243.85 234.47 245.85 234.47 248.36 310.19 267.57 310.19 272.85 207.55 216.35 199.81 216.35 225.7 221.77 310.19 241.59 310.19"/><polygon class="cls-17" points="164.32 310.19 184.03 310.19 186.33 233.39 188.32 233.39 190.87 310.19 209.9 310.19 213.81 225.1 210.68 203.62 165 192.2 158.83 224.61 159.43 234.06 164.32 310.19"/><polygon class="cls-18" points="274.77 221.51 213.9 221.51 217.16 135.07 244.33 130.88 273.68 135.07 268.05 155.22 274.77 221.51"/><path class="cls-19" d="M206.15,110.72s8.85-4.71,10.1,2-2.79,13.37-10,9.72S206.15,110.72,206.15,110.72Z"/><path class="cls-20" d="M211.12,121.18a.73.73,0,1,0,.73-.73A.73.73,0,0,0,211.12,121.18Z"/><path class="cls-21" d="M208.78,116.2c.59-2.19,1.3-3.45,2.16-3.84a3.6,3.6,0,0,1,4.54,1.6.42.42,0,0,1-.15.57.41.41,0,0,1-.57-.14,3.28,3.28,0,0,0-2.13-1.49c1.29,1.33,2.66,3.77.86,6a.42.42,0,0,1-.32.16.37.37,0,0,1-.26-.1.41.41,0,0,1-.07-.58c2-2.52-1.13-5.19-1.26-5.31l0,0-.26.09c-.28.13-1,.7-1.71,3.3a.43.43,0,0,1-.4.31l-.11,0A.42.42,0,0,1,208.78,116.2Z"/><path class="cls-18" d="M237.82,131.79l-29.12,4L166.27,147.7l8.26,13.22,31.74-5.78s30.35,3.22,32.8,2.8l-2.66-2.34Z"/><path class="cls-19" d="M166.87,110.72s-8.85-4.71-10.1,2,2.79,13.37,10,9.72S166.87,110.72,166.87,110.72Z"/><path class="cls-20" d="M161.9,121.18a.73.73,0,1,1-.73-.73A.73.73,0,0,1,161.9,121.18Z"/><path class="cls-21" d="M164.24,116.2c-.59-2.19-1.3-3.45-2.17-3.84a3.59,3.59,0,0,0-4.53,1.6.42.42,0,0,0,.72.43,3.28,3.28,0,0,1,2.13-1.49c-1.29,1.33-2.66,3.77-.87,6a.45.45,0,0,0,.33.16.39.39,0,0,0,.26-.1.4.4,0,0,0,.06-.58c-2-2.52,1.13-5.19,1.27-5.31l0,0,.26.09c.28.13,1,.7,1.71,3.3a.42.42,0,0,0,.4.31l.11,0A.42.42,0,0,0,164.24,116.2Z"/><path class="cls-19" d="M186.53,133.5a6.28,6.28,0,0,0-6.54,6V166l0,0v-.1a6.53,6.53,0,0,0,6.52,6.53h0A6.53,6.53,0,0,0,193,165.9V146h.07v-6.52A6.28,6.28,0,0,0,186.53,133.5Z"/><g class="cls-22"><g class="cls-23"><path class="cls-19" d="M216.52,85.75H158s-2.57,34,1.39,43c2.15,4.89,9.33,9.86,16.12,14a22.93,22.93,0,0,0,23.85-.09c6.66-4.15,13.64-9.09,15.77-13.95C219.08,119.72,216.52,85.75,216.52,85.75Z"/></g></g><path class="cls-19" d="M210.44,102.36A11.75,11.75,0,0,0,198.69,91H174.54a12,12,0,0,0-12,11.61c-.27,9.2.91,21.24,2.76,25.83,1.72,4.26,6.35,8.6,11.78,12.23a17,17,0,0,0,19.06-.07c5.32-3.62,9.79-7.92,11.5-12.16C209.54,123.79,210.71,111.59,210.44,102.36Z"/><g class="cls-24"><path class="cls-25" d="M195.5,128c-.36-1.12-1.66-.82-4,.42a12.63,12.63,0,0,1-10,.26c-2.38-1.07-3.56-1.18-4-.21s2.21,6.62,7.21,7.3a12.88,12.88,0,0,0,3.87-.1C193.57,134.72,195.89,129.18,195.5,128Z"/><path class="cls-26" d="M179.68,127.19s.08,3.93,6.27,4.05,8-1.8,8-4.52Z"/><path class="cls-19" d="M182,135s4.26-3,10.85-.19l-5.09,3.88Z"/><g class="cls-27"><path class="cls-19" d="M182,135s4.26-3,10.85-.19l-5.09,3.88Z"/></g></g><g class="cls-23"><path class="cls-19" d="M182,118.29s-.06.26-.16.72c-.05.24-.11.52-.16.84a3.17,3.17,0,0,0,0,1c.05.21.5.5.84.73a10.44,10.44,0,0,0,1.24.68,6.08,6.08,0,0,0,2.83.7,4.25,4.25,0,0,0,.75-.1c.24,0,.49-.13.73-.2a11.81,11.81,0,0,0,2.6-1.28,4.2,4.2,0,0,0,.49-.39c.07-.08.11-.11.13-.19a.74.74,0,0,0,0-.25,10.32,10.32,0,0,0,0-1.92c0-.47-.06-.74-.06-.74s.08.26.21.72c.05.23.11.51.19.84a5.8,5.8,0,0,1,.14,1.13,2.2,2.2,0,0,1,0,.36.93.93,0,0,1-.19.37,4.19,4.19,0,0,1-.51.52,8.76,8.76,0,0,1-1.23.88,9.49,9.49,0,0,1-1.47.7c-.26.09-.53.18-.81.25a7.35,7.35,0,0,1-.85.13,6,6,0,0,1-3.25-.88,8.19,8.19,0,0,1-1.24-.85,6.19,6.19,0,0,1-.53-.48,2,2,0,0,1-.24-.26.81.81,0,0,1-.16-.38,2.68,2.68,0,0,1,.17-1.17c.09-.33.2-.6.28-.82C181.9,118.53,182,118.29,182,118.29Z"/></g><path class="cls-28" d="M168,125.26a.06.06,0,0,0,0-.11.06.06,0,0,0,0,.11Z"/><path class="cls-29" d="M177.55,111.67a2.43,2.43,0,1,1-2.43-2.43A2.42,2.42,0,0,1,177.55,111.67Z"/><path class="cls-29" d="M200.32,111.67a2.43,2.43,0,1,1-2.42-2.43A2.42,2.42,0,0,1,200.32,111.67Z"/><path class="cls-30" d="M168.79,106.62a12.55,12.55,0,0,1,7.29-4.56"/><path class="cls-30" d="M204.23,106.62a12.55,12.55,0,0,0-7.29-4.56"/><path class="cls-20" d="M208.7,93.75c-3.34,2.82-7.57,4.33-11.75,5.63-7.82,2.44-16.07,4.38-24.16,3.11a25,25,0,0,1-12.33-5.35,17.69,17.69,0,0,1-6.33-11.66c.13,1.63,2.29,2.1,3.93,2,13.24-.44,26.43-5.48,39.45-3.07,4.66.86,8.49,3.14,10.44,7.45"/><path class="cls-20" d="M207.74,92.8c-7.35,6.51-20.66,9.09-30.27,8.77C167.3,101.23,157,96,155.5,85.1l-2.74.76c.8,2.25,2.47,2.89,4.79,3,4.94.35,10.42-1,15.28-1.85,10.23-1.74,27.95-6,34.24,5.36.65,1.16,2.33.14,1.76-1-3.78-7.83-12.25-9-20.22-8.84a108,108,0,0,0-14.68,1.69c-2.64.42-17.31,4-18.43.86a1.42,1.42,0,0,0-2.74.76c3.67,26.17,41.42,19.28,56.62,9a1.34,1.34,0,1,0-1.64-2.11Z"/><path class="cls-20" d="M166.37,98.82a.73.73,0,0,0-1.05-.42,5,5,0,0,0-2.07,3.08,35,35,0,0,1,.48-4.58c.47-1.66-2.25-2.36-2.55-.71a27.49,27.49,0,0,0,.74,13.51.9.9,0,0,0,1.77-.22C164.94,102.89,166.89,100.37,166.37,98.82Z"/><path class="cls-20" d="M203.66,95.19c.66,5.18,6.33,8.83,6.49,14a32.07,32.07,0,0,0,2.07-8.48,10.88,10.88,0,0,0-2.53-8.13"/><path class="cls-20" d="M202.45,95.19c.12,2.48,1.59,4.45,3,6.43a23.24,23.24,0,0,1,4.11,7.79.64.64,0,0,0,1.25-.17c0-1.92,1.61-3.88,2.12-5.73a15.14,15.14,0,0,0,.46-5.19c-.19-2.38-.84-5.45-3.2-6.5a1,1,0,0,0-1.38,1.06C209.3,95,210.71,96.69,211,99c.31,2.61.18,7.85-1.38,10l1.19.32c.19-2.33-1-4.46-2.13-6.41a37.69,37.69,0,0,1-3.84-8c-.4-1.24-2.44-1.1-2.37.32Z"/><path class="cls-20" d="M199.64,76.47c-5.16-1.06-10.65-.32-15.73.82a105.31,105.31,0,0,0-10.55,3.11c-5.06,1.71-8.23.73-12.15-3.1a1.68,1.68,0,0,0-2.6.34,10.82,10.82,0,0,0-1.68,8.26c-1.71-1.25-3.42-2.48-5.13-3.74a1.29,1.29,0,0,0-1.89.77c-.88,5.56-1.45,11.48,2.31,16.16,3.43,4.27,9.18,6,14.39,6.82,14.76,2.23,28.53-4.27,41.66-10.11,1.13-.5.15-2.12-1-1.65l-1.3.55,2.73-1.92v0c.06.89,1.32,1.39,1.79.49C214.4,85.75,206.52,77.88,199.64,76.47Z"/><path class="cls-31" d="M178.44,151.87a15.26,15.26,0,0,0,17-1s2,18.76-5.47,19.3S178.44,151.87,178.44,151.87Z"/><path class="cls-16" d="M216.35,150.91l-13.63-4.75L193.07,145c0,2.66-.65,20.12-6.37,22.89-5.64-2.72-6.71-19.7-6.75-22.77l-18.78,3.1.09,9.37-3.62,19,2.62,39.73s13,2.73,24.78,3.83c18.68,1.75,27-3.83,27-3.83l3.58-39.19Z"/><path class="cls-19" d="M137.29,83s1.62-6.45.81-6.74-1.48-.4-2,.73-2.3,5.07-2.3,5.07l-1.61-3.53S130.42,70,130.06,69a1.14,1.14,0,0,0-2.2.26c-.06.7,1,9.92,1,9.92s-3.61-10.36-4.38-10.82-2.12,0-1.85,1.66c.08.55,2.69,10.54,2.69,10.54s-3.2-6.18-4.1-7a1.12,1.12,0,0,0-1.91.74c-.12.81,3.85,9.64,3.85,9.64a26,26,0,0,0-3-2.89,1,1,0,0,0-1.47,1.07c.14,1,6.62,10.27,6.62,10.27l1.28,6.2L136,95.41a40,40,0,0,1-.8-4.8C135.38,90.2,137.29,83,137.29,83Z"/><polygon class="cls-32" points="136.35 94.28 135.87 91.6 123.22 93.69 123.96 97.38 136.35 94.28"/><path class="cls-16" d="M135.42,148.32c-6.56-16-12.21-51.59-12.21-51.59l13.71-3.39s9.08,31.18,13.92,41.07c2.32,4.77,8.63,12.81,12.53,15.39-2.63,10.89.91,19-5,28.18l.09-1S141.2,162.42,135.42,148.32Z"/><polygon class="cls-33" points="236.92 129.45 251.75 129.45 249.83 136.05 239.07 136.05 236.92 129.45"/><path class="cls-19" d="M264,97.67s8.85-4.71,10.1,2-2.79,13.37-10,9.72S264,97.67,264,97.67Z"/><path class="cls-21" d="M266.6,103.15c.6-2.19,1.31-3.45,2.17-3.84a3.59,3.59,0,0,1,4.53,1.6.42.42,0,1,1-.71.43,3.31,3.31,0,0,0-2.14-1.49c1.29,1.33,2.66,3.76.87,6a.42.42,0,0,1-.32.16.39.39,0,0,1-.27-.1.41.41,0,0,1-.06-.58c2-2.52-1.13-5.2-1.27-5.31l0,0-.26.1c-.27.13-1,.7-1.7,3.3a.42.42,0,0,1-.4.3h-.11A.41.41,0,0,1,266.6,103.15Z"/><path class="cls-19" d="M224.7,97.67s-8.85-4.71-10.1,2,2.79,13.37,10,9.72S224.7,97.67,224.7,97.67Z"/><path class="cls-21" d="M222.07,103.15c-.6-2.19-1.31-3.45-2.17-3.84a3.59,3.59,0,0,0-4.53,1.6.42.42,0,0,0,.71.43,3.31,3.31,0,0,1,2.14-1.49c-1.29,1.33-2.66,3.76-.87,6a.42.42,0,0,0,.32.16.39.39,0,0,0,.27-.1.41.41,0,0,0,.06-.58c-2-2.52,1.13-5.2,1.27-5.31l0,0,.26.1c.27.13,1,.7,1.7,3.3a.42.42,0,0,0,.4.3h.11A.41.41,0,0,0,222.07,103.15Z"/><path class="cls-19" d="M244.35,120.44a6.28,6.28,0,0,0-6.53,6V134l0,0v-.1a6.52,6.52,0,0,0,6.53,6.52h0a6.52,6.52,0,0,0,6.52-6.52v-1h.07v-6.52A6.28,6.28,0,0,0,244.35,120.44Z"/><g class="cls-34"><g class="cls-23"><path class="cls-19" d="M274.34,72.7H215.81s-2.56,34,1.4,43c2.15,4.89,9.32,9.86,16.12,14a22.91,22.91,0,0,0,23.85-.08c6.65-4.15,13.63-9.09,15.77-14C276.91,106.67,274.34,72.7,274.34,72.7Z"/></g></g><path class="cls-19" d="M268.26,89.31a11.74,11.74,0,0,0-11.75-11.39H232.37a12,12,0,0,0-12,11.61c-.26,9.2.92,21.24,2.77,25.83,1.72,4.26,6.34,8.6,11.78,12.23a17,17,0,0,0,19.05-.07c5.32-3.62,9.79-7.93,11.5-12.16C267.37,110.74,268.53,98.54,268.26,89.31Z"/><g class="cls-35"><path class="cls-25" d="M255,114.9c-.42-1.12-2-.82-4.7.42a17.65,17.65,0,0,1-11.91.26c-2.82-1.07-4.22-1.18-4.73-.22s2.63,6.62,8.57,7.31a18.09,18.09,0,0,0,4.59-.1C252.72,121.67,255.47,116.13,255,114.9Z"/><path class="cls-26" d="M236.22,114.14s.1,3.93,7.45,4,9.52-1.8,9.55-4.52Z"/><path class="cls-19" d="M238.94,122s5.05-3,12.88-.19l-6,3.88Z"/><g class="cls-27"><path class="cls-19" d="M238.94,122s5.05-3,12.88-.19l-6,3.88Z"/></g></g><g class="cls-23"><path class="cls-19" d="M239.85,105.24l-.17.72c-.05.23-.11.51-.15.84a3.17,3.17,0,0,0,0,1c.05.21.5.5.85.73a11.12,11.12,0,0,0,1.24.68,6.08,6.08,0,0,0,2.83.7,5.1,5.1,0,0,0,.74-.1c.25-.06.49-.13.73-.21a9.43,9.43,0,0,0,1.39-.57,11.81,11.81,0,0,0,1.22-.7,2.83,2.83,0,0,0,.48-.4.47.47,0,0,0,.14-.18,1.09,1.09,0,0,0,0-.25,11.44,11.44,0,0,0,0-1.92c0-.47-.07-.74-.07-.74s.09.25.21.71c0,.24.12.52.19.84a6.88,6.88,0,0,1,.15,1.14,2.2,2.2,0,0,1,0,.36,1,1,0,0,1-.2.36,4.26,4.26,0,0,1-.51.53,9.65,9.65,0,0,1-1.23.88,9.37,9.37,0,0,1-1.46.7,7.71,7.71,0,0,1-.82.24,5.37,5.37,0,0,1-.85.14,6.13,6.13,0,0,1-3.24-.88A7.66,7.66,0,0,1,240,109a4.69,4.69,0,0,1-.52-.47,2,2,0,0,1-.24-.27.75.75,0,0,1-.17-.37,2.92,2.92,0,0,1,.17-1.18c.1-.32.2-.59.29-.81C239.72,105.48,239.85,105.24,239.85,105.24Z"/></g><path class="cls-28" d="M225.8,112.21a.06.06,0,0,0,0-.11.06.06,0,0,0,0,.11Z"/><path class="cls-29" d="M235.37,98.62A2.43,2.43,0,1,1,233,96.19,2.42,2.42,0,0,1,235.37,98.62Z"/><path class="cls-29" d="M258.15,98.62a2.43,2.43,0,1,1-2.43-2.43A2.42,2.42,0,0,1,258.15,98.62Z"/><path class="cls-30" d="M226.62,93.57A12.52,12.52,0,0,1,233.9,89"/><path class="cls-30" d="M262.05,93.57A12.52,12.52,0,0,0,254.77,89"/><path class="cls-20" d="M270.44,81a20.94,20.94,0,0,0-3.28-8.73,19.3,19.3,0,0,0,2.15-3.86,17.41,17.41,0,0,0,.93-9.89,1.63,1.63,0,0,0-2.71-.72,20.2,20.2,0,0,1-6.4,4.06,13.85,13.85,0,0,0,2.05-5.95c.1-1.33-1.4-1.82-2.4-1.38-4.48,2-10,3.11-14.59,5.35.11-.24.21-.49.32-.73.37-.34,2.17-5.22.81-5.15s-2.28,2.58-5.86,3.6c-2.21.73-29.06,2-22.93,31.75A33.6,33.6,0,0,0,220,96l.06.78c.14,1.48,2.45,1.51,2.34,0a2.81,2.81,0,0,0,0-.29.43.43,0,0,0,0-.11V96.2c0-.7,0-1.43,0-2.19a24.1,24.1,0,0,1,1.69-7.2,8.63,8.63,0,0,1,6.54-5.17c4.05-.59,9,.8,13.31,1.42,5.8.82,14.54-4.07,19.33-.21,2.64,3.37,2.85,9,3.58,13.12.25,1.44,2.47,1,2.48-.33C269.45,90.53,271.22,86.18,270.44,81Z"/><polygon class="cls-36" points="236.92 129.45 232.41 132.7 236.67 144.02 244.31 140.45 236.92 129.45"/><polygon class="cls-36" points="251.75 129.45 256.26 132.7 252.82 144.02 244.35 140.45 251.75 129.45"/><path class="cls-19" d="M261.4,220.76s-5,3.71-4.56,4.4.84,1.16,1.85.63,4.65-2.31,4.65-2.31l-.92,3.5s-3.71,7.22-4,8.16.88,2,1.74,1.11c.46-.46,5.11-7.78,5.11-7.78s-3.5,9.62-3.22,10.41,1.52,1.28,2.32-.1c.26-.46,4.27-9.21,4.27-9.21s-1.33,6.35-1.14,7.46a1,1,0,0,0,1.81.59c.56-.51,2.89-9.24,2.89-9.24a23.56,23.56,0,0,0,.48,3.86.9.9,0,0,0,1.69.09c.47-.78,1.27-11.33,1.27-11.33l2.73-5.24-8.66-3.19a36.52,36.52,0,0,1-2.25,3.94C267,216.69,261.4,220.76,261.4,220.76Z"/><polygon class="cls-37" points="266.03 210.69 271.14 185.75 272.47 197.57 266.03 210.69"/><polygon class="cls-36" points="268.4 209.06 266.78 214.32 278.3 219.94 280.49 216.41 268.4 209.06"/><path class="cls-18" d="M273.68,135.52s19.27,29.81,20.51,36.91-13.47,46.2-13.47,46.2L266,210.69,277,177l-9-22.27Z"/><polygon class="cls-32" points="136.16 280.47 109.16 277.75 109.16 277.72 109.03 277.73 108.9 277.72 108.9 277.75 81.9 280.47 78.57 307.49 79.42 307.6 108.9 307.6 109.16 307.6 138.63 307.6 139.49 307.49 136.16 280.47"/><path class="cls-16" d="M108.92,294.45c12.93-.36,30.45-3.59,30.45-3.59l-4-69.93c.28-3.06.34-4.64-2.87-5.67-4.41-1.43-22.28-9.58-22.28-9.58l-.25,0v0h-3v0l-.24,0s-17.25,8.15-21.52,9.58c-3.09,1-3,2.61-2.71,5.67l-4.74,69.93s17.76,3.23,30.25,3.59Z"/><path class="cls-19" d="M68.82,240.39s-2.4,15-1.46,16.6,16.52,5.7,27.08,3.2,23.2-8.22,23.2-8.22l-26.14-6.9-11.26,1S72.28,243.87,68.82,240.39Z"/><g class="cls-38"><path class="cls-39" d="M84.62,247.12S96,251.58,96,252.87s.86,5.08-29.71,3.93c0,0,23.3,14.45,45.32,7.18s6.08-10.47,6.08-10.47Z"/></g><path class="cls-16" d="M64.79,242.24l13.69,4.08,5.68-1.64,2.77-2.61,17.42-6.73-.1-29.7s-24,5.75-30.95,13.87C69.15,224.32,64.79,242.24,64.79,242.24Z"/><path class="cls-40" d="M78.52,246.22s1.88-10.42,4.06-17.51l.81,18.41Z"/><path class="cls-16" d="M153.26,242.24l-13.68,4.08-5.68-1.64-2.77-2.61-17.32-6.73v-29.7s23.95,5.75,30.95,13.87C148.91,224.32,153.26,242.24,153.26,242.24Z"/><path class="cls-40" d="M139.54,246.22s-1.89-10.42-4.07-17.51l-.8,18.41Z"/><path class="cls-41" d="M128.59,239.89s2-4.1,2.54-5,2.73.47,1.91,2.27-1.2,2.45-1.2,2.45Z"/><path class="cls-19" d="M117.23,247.33s12.14-8.92,12.72-8.92,9.27-.21,9.84-.09.63,1.07.5,1.55a.68.68,0,0,1-.63.5l-5.93.4v.12s5.42,0,7.68.12a.89.89,0,0,1,.83.92h0a.9.9,0,0,1-.85.89l-6.83.54,8.13.47.72,2.33-19.89,3.07Z"/><path class="cls-19" d="M148.78,243.32a93.89,93.89,0,0,1,1.32,10.42c0,3-5.46,6.27-8,6.45S86.35,248,83.49,247.75a39,39,0,0,1-5.32-.84s2.59-4.95,7.4-6.52,10.25.92,13.5,1.68,20.64,3.15,29.73,3A187.39,187.39,0,0,0,148.78,243.32Z"/><g class="cls-42"><path class="cls-43" d="M148.49,256.8s-14.74-1.37-33.5-4.65-36.82-5.24-36.82-5.24l64.25,15.22Z"/></g><g class="cls-44"><path class="cls-19" d="M120.61,244.86l.91,0,2.41,0c2,0,4.65,0,7.29,0s5.29.08,7.27.08h1.36c.4,0,.75,0,1,0l.92,0s-.32.09-.89.22l-1,.2c-.4.06-.85.16-1.35.2a53.8,53.8,0,0,1-7.32.35c-2.67,0-5.32-.24-7.31-.47-1-.11-1.81-.25-2.39-.33Z"/></g><path class="cls-20" d="M118.55,147.6c2.1-1.71,5.26-1,7.69.16a17.79,17.79,0,0,1,9.08,9.78,20.89,20.89,0,0,1,1,5.77c.16,2.9-.23,6.23-2.58,7.93a1.59,1.59,0,0,1-1,.37c-.68-.05-1.07-.78-1.29-1.43-.71-2-1-4.2-1.6-6.28-1.72-6-5.75-11-9.93-15.59"/><path class="cls-20" d="M119.24,148.79c5.33-3,12.23,3.79,14.17,8.08a17.31,17.31,0,0,1,1.45,7.07c0,2.54-1,7.07-2.75,2.7-1.48-3.62-2-7.09-4.13-10.51-2-3.08-4.42-6.72-7.59-8.59-.82-.49-1.56.45-1.21,1.22,1.68,3.73,5,6.59,7,10.24s2.06,8.26,4,12c2.56,4.87,6.68,0,7.45-3.45a19.22,19.22,0,0,0-4.8-16.76c-3.69-3.85-9.83-7.45-14.94-4.33a1.37,1.37,0,0,0,1.39,2.37Z"/><path class="cls-20" d="M86.47,171.32c-4.25-6.07-3.91-14.77.2-20.94s11.52-9.78,18.93-10c4-.13,8.31.83,10.81,3.92.68.83,1.19,2.06.57,2.94a2.73,2.73,0,0,1-1.13.81c-4.07,1.91-8.61,2.53-13,3.51S94,154,90.78,157.17a14.43,14.43,0,0,0-3.51,14.17"/><path class="cls-20" d="M87.34,170.81a18.47,18.47,0,0,1,6.46-25.14,23.62,23.62,0,0,1,13.3-3.53c2,.09,4.69.43,6.24,1.71,4.47,3.7-1.87,4-4.33,4.61-6.74,1.65-14.14,2.39-19.21,7.72-3.83,4-5,10.2-3.7,15.48a1.21,1.21,0,0,0,2.33-.64c-4.28-17,15.83-16.68,26.33-20.68,8.9-3.4,1-10.39-4.93-11.45-17.55-3.15-35.66,16.63-24.23,32.94a1,1,0,0,0,1.74-1Z"/><path class="cls-19" d="M128,172.13s8.39-4.47,9.57,1.91-2.64,12.67-9.48,9.21S128,172.13,128,172.13Z"/><path class="cls-21" d="M130.44,177.32c.57-2.08,1.24-3.27,2.06-3.64a3.4,3.4,0,0,1,4.29,1.52.4.4,0,0,1-.13.54.41.41,0,0,1-.55-.14,3.15,3.15,0,0,0-2-1.41c1.23,1.26,2.52,3.57.82,5.68a.37.37,0,0,1-.3.15.38.38,0,0,1-.25-.09.4.4,0,0,1-.06-.56c1.92-2.39-1.07-4.92-1.2-5l0,0-.25.09c-.26.12-.94.67-1.61,3.13a.41.41,0,0,1-.38.29l-.11,0A.39.39,0,0,1,130.44,177.32Z"/><path class="cls-19" d="M90.74,172.13s-8.39-4.47-9.57,1.91,2.64,12.67,9.48,9.21S90.74,172.13,90.74,172.13Z"/><path class="cls-21" d="M88.24,177.32c-.56-2.08-1.23-3.27-2-3.64a3.39,3.39,0,0,0-4.29,1.52.38.38,0,0,0,.13.54.39.39,0,0,0,.54-.14,3.18,3.18,0,0,1,2-1.41c-1.22,1.26-2.52,3.57-.82,5.68a.4.4,0,0,0,.31.15.38.38,0,0,0,.25-.09.4.4,0,0,0,.06-.56c-1.93-2.39,1.07-4.92,1.2-5l0,0,.24.09c.27.12,1,.67,1.62,3.13a.41.41,0,0,0,.38.29l.11,0A.38.38,0,0,0,88.24,177.32Z"/><path class="cls-19" d="M115,199.39a6.22,6.22,0,0,0-12.39,0v6.82a6.19,6.19,0,0,0,6.2,6.21h0a6.19,6.19,0,0,0,6.19-6.2Z"/><g class="cls-45"><g class="cls-23"><path class="cls-19" d="M137.21,148.47H81.75s-2.43,32.18,1.32,40.7c2,4.64,8.84,9.35,15.28,13.3a21.73,21.73,0,0,0,22.6-.07c6.3-3.94,12.92-8.62,14.94-13.23C139.64,180.65,137.21,148.47,137.21,148.47Z"/></g></g><path class="cls-19" d="M132,164.21a11.14,11.14,0,0,0-11.13-10.8H98a11.33,11.33,0,0,0-11.33,11c-.25,8.72.86,20.13,2.62,24.48,1.63,4,6,8.15,11.16,11.59a16.13,16.13,0,0,0,18.06-.07c5-3.43,9.27-7.51,10.89-11.52C131.17,184.51,132.27,173,132,164.21Z"/><g class="cls-46"><path class="cls-25" d="M118.77,188.45c-.38-1.06-1.74-.78-4.16.4a14.58,14.58,0,0,1-10.52.25c-2.49-1-3.73-1.12-4.17-.21s2.32,6.28,7.56,6.93a14.94,14.94,0,0,0,4.06-.1C116.75,194.87,119.18,189.62,118.77,188.45Z"/><path class="cls-26" d="M102.18,187.73s.09,3.73,6.58,3.84,8.41-1.71,8.43-4.28Z"/><path class="cls-19" d="M104.58,195.14S109,192.28,116,195l-5.33,3.68Z"/><g class="cls-27"><path class="cls-19" d="M104.58,195.14S109,192.28,116,195l-5.33,3.68Z"/></g></g><g class="cls-23"><path class="cls-19" d="M105.09,181l-.15.69a7.8,7.8,0,0,0-.15.78,2.87,2.87,0,0,0,0,1c0,.2.47.47.8.7a9.9,9.9,0,0,0,1.17.64,5.81,5.81,0,0,0,2.68.67,4.86,4.86,0,0,0,.71-.1c.23-.05.46-.12.69-.19a9,9,0,0,0,1.31-.55,8.6,8.6,0,0,0,1.16-.67,2.48,2.48,0,0,0,.46-.37c.06-.07.1-.1.12-.17a.69.69,0,0,0,.05-.24,10.29,10.29,0,0,0,0-1.82l-.07-.7a6.93,6.93,0,0,1,.2.68l.18.79a5.36,5.36,0,0,1,.14,1.08,2,2,0,0,1,0,.34,1,1,0,0,1-.18.35,3.78,3.78,0,0,1-.49.49,7.84,7.84,0,0,1-1.16.84,8.48,8.48,0,0,1-1.39.66,6.82,6.82,0,0,1-.77.23,5,5,0,0,1-.81.13,5.82,5.82,0,0,1-3.07-.83,8.15,8.15,0,0,1-1.18-.81,5.49,5.49,0,0,1-.5-.45l-.23-.25a.73.73,0,0,1-.15-.36,2.61,2.61,0,0,1,.16-1.11c.09-.31.19-.57.27-.78C105,181.24,105.09,181,105.09,181Z"/></g><path class="cls-28" d="M91.78,184.19a.05.05,0,1,0,0-.1.05.05,0,1,0,0,.1Z"/><circle class="cls-29" cx="98.55" cy="173.02" r="2.3"/><circle class="cls-29" cx="120.13" cy="173.02" r="2.3"/><path class="cls-30" d="M92.56,168.24a11.85,11.85,0,0,1,6.9-4.32"/><path class="cls-30" d="M126.13,168.24a11.88,11.88,0,0,0-6.9-4.32"/><path class="cls-20" d="M119.76,148.34c.31.48,0,1.11-.37,1.57a47.43,47.43,0,0,1-6.38,7.66,15.8,15.8,0,0,1-8.83,4.29,1.38,1.38,0,0,1-1.06-.2,1.25,1.25,0,0,1-.34-1c0-2.24,1.42-4.24,2.94-5.89A32.18,32.18,0,0,1,116.59,147"/><path class="cls-20" d="M119.07,148.15c-.78,2.83-4,5.87-6,7.87a18.25,18.25,0,0,1-4.22,3.14c-.55.28-4,1.8-4.64,1.42-1.55-1,4.89-7.09,5.85-7.87,2.29-1.87,4.92-3.23,7.24-5,.82-.64-.1-1.75-.92-1.59-4.81.93-9.39,4.74-12.42,8.46-1.44,1.77-4.52,7.23-.92,8.53s8.84-2.82,11.2-5.09a40.49,40.49,0,0,0,4.8-5.73c1.12-1.55,2.15-2.48,1.38-4.27-.26-.59-1.16-.38-1.31.17Z"/><path class="cls-20" d="M112.65,150.22A74.69,74.69,0,0,1,93.27,161.8c-1.21.49-2.68.93-3.74.16a2.6,2.6,0,0,1-.91-2.42,5.51,5.51,0,0,1,1.1-2.44,19.74,19.74,0,0,1,4.5-4.39,34.41,34.41,0,0,1,21-6.59"/><path class="cls-20" d="M111.9,149.47a57.12,57.12,0,0,1-11.45,7.41c-1.56.8-4.39,2.52-6,2.73q-2.91,2.1-2.56-2.54a14.72,14.72,0,0,1,1.69-1.66,30.54,30.54,0,0,1,11-6.08c3.59-1.14,7.32-1,10.9-2a1.23,1.23,0,0,0,0-2.35c-5.31-1.47-11.85.74-16.67,3-4.17,2-11.35,6.1-11.89,11.35-1.3,12.76,23.66-6.32,26.22-8.19a1.05,1.05,0,1,0-1.28-1.66Z"/><path class="cls-20" d="M119.27,149.62a33.74,33.74,0,0,0,1.87,13.4c1,2.7,2.52,5.53,5.24,6.43a1.53,1.53,0,0,0,1,.06,1.4,1.4,0,0,0,.71-.78c.84-1.85-.05-4-1-5.8a123.21,123.21,0,0,0-8.69-14.58"/><path class="cls-20" d="M118.35,149.62A28.83,28.83,0,0,0,120.28,165c1.07,2.4,4.3,7.44,7.73,6,3.2-1.37,1.8-6,.8-8.24-2.36-5.22-5.42-11.13-9.35-15.33-1.15-1.22-2.87.33-2.21,1.71,1.32,2.77,3.2,5.29,4.77,7.93,1.37,2.29,4.39,6,4.58,8.65.27,3.69-2.27.51-3.16-1.09a21.72,21.72,0,0,1-1.75-4.82,46,46,0,0,1-1.51-10.11.92.92,0,0,0-1.83,0Z"/><path class="cls-20" d="M119.81,149.24,124,158.1c2,4.26,4.22,8.7,8.07,11.43a2.38,2.38,0,0,0,1.35.56,1.73,1.73,0,0,0,1.52-1.42,4.41,4.41,0,0,0-.22-2.21,25.77,25.77,0,0,0-6.45-10.28,68.42,68.42,0,0,0-9.51-7.7"/><path class="cls-20" d="M119,149.47c1.18,3.45,10.14,28.18,16.82,21.22,3.1-3.22-1.35-9.63-3.32-12.28-3.23-4.33-8.19-9.25-13.32-11.21-1.36-.52-2,1.31-1.29,2.21,2.6,3.1,6.39,5.06,9.23,8,1.07,1.09,7.47,8.55,5.62,9.82-2.11,1.45-11-16.55-12.14-18.42-.5-.81-1.94-.31-1.6.67Z"/><path class="cls-20" d="M120.36,145.88a10.55,10.55,0,0,0-3.29-8.61.66.66,0,0,0-.37-.21c-.25,0-.41.25-.47.48a3.25,3.25,0,0,0,.58,2.27l3,5.62"/><path class="cls-20" d="M121.09,146.08a9.85,9.85,0,0,0-.4-6.07c-.61-1.42-2.13-4.39-4-4.39-4.83,0,1,9.77,2.55,10.85a1.21,1.21,0,0,0,1.81-1c0-1.35-.81-2.39-1.45-3.56-.31-.56-1.85-3.74-2.19-3.57H116c2.21,1.21,3.47,5.29,3.64,7.58.06.79,1.29,1.08,1.48.2Z"/><path class="cls-20" d="M114.41,146.21c-.18-3.38-3.52-5.74-6.78-6.67-8.54-2.42-17.87,1.57-24.16,7.83-1.77,1.75-3.46,4-3.1,6.48a17.6,17.6,0,0,0,8.69-4.71"/><path class="cls-20" d="M115.3,146.21c.54-8.37-11.34-9.51-17.26-8.53-7.52,1.25-19.3,7.4-19.39,16.17a1.75,1.75,0,0,0,2.18,1.66c3.58-.92,7.37-2.45,9.35-5.71.72-1.18-.67-2.33-1.78-1.78-3,1.46-5.15,3.3-8.49,4.17l2.18,1.66c.06-6.43,10-11.35,15.28-12.78,5.93-1.61,13.59-.73,16.27,5.59.37.89,1.61.33,1.66-.45Z"/><path class="cls-20" d="M81.77,149.47c2.15-5.87,8.09-9.53,14.07-11.33,4.36-1.31,9.15-1.86,13.4-.24s7.71,5.88,7.29,10.4"/><path class="cls-20" d="M83.2,150.3c5.11-11.79,28.84-17.76,31.61-1.52.29,1.72,3.11,1.68,3.44,0,1.77-9.27-8.79-14.32-16.52-13.71-8.9.7-18,5.49-21.55,14-.72,1.71,2.27,3,3,1.27Z"/><path class="cls-20" d="M120.37,144.56l-.4.33c1.3-2.56,4.48-3.73,7.34-3.44.42,0,.91.16,1.08.55.3.66-.56,1.22-1.25,1.44l-7.6,2.44"/><path class="cls-20" d="M120.37,143.55l-.4,0,.93,2.24c1.07-.86,1.68-1.83,3-2.35a7.2,7.2,0,0,1,1.94-.45c.32,0,.64,0,1,0,.55.11.63,0,.24-.25l.14-1.1c-.44,1-3.55,1.49-4.54,1.82a10.34,10.34,0,0,0-3.82,1.71c-.69.63-.08,1.58.69,1.67,1.4.16,2.82-.5,4.15-.91a39.41,39.41,0,0,0,4.25-1.32c1.64-.72,2.78-2.7,1.09-4.1-2.83-2.32-9.84.42-10.32,4-.22,1.62,2.12,2.4,2.53.7l.1-.42a1,1,0,0,0-1-1.27Z"/><path class="cls-47" d="M91.21,166.37h12.31a2.94,2.94,0,0,1,3,2.86v5.38a6,6,0,0,1-6.1,5.78h-6a6.06,6.06,0,0,1-6.22-5.89v-5.27A2.94,2.94,0,0,1,91.21,166.37Z"/><path class="cls-48" d="M91.21,166.37h12.31a2.94,2.94,0,0,1,3,2.86v5.38a6,6,0,0,1-6.1,5.78h-6a6.06,6.06,0,0,1-6.22-5.89v-5.27A2.94,2.94,0,0,1,91.21,166.37Z"/><line class="cls-49" x1="86.63" y1="170.61" x2="88.2" y2="171.34"/><path class="cls-47" d="M128.05,166.37H115.74a2.94,2.94,0,0,0-3,2.86v5.38a6,6,0,0,0,6.1,5.78h6a6.06,6.06,0,0,0,6.22-5.89v-5.27A2.94,2.94,0,0,0,128.05,166.37Z"/><path class="cls-48" d="M128.05,166.37H115.74a2.94,2.94,0,0,0-3,2.86v5.38a6,6,0,0,0,6.1,5.78h6a6.06,6.06,0,0,0,6.22-5.89v-5.27A2.94,2.94,0,0,0,128.05,166.37Z"/><line class="cls-49" x1="132.63" y1="170.61" x2="131.06" y2="171.34"/><line class="cls-50" x1="106.95" y1="171.83" x2="112.18" y2="171.83"/><path class="cls-20" d="M234.1,207.23c-1.32-4.45-3.35-8.74-4.17-13.32s-.48-9.11-1-13.64c-.69-6.07-2-12.91-6.69-17.31a14.16,14.16,0,0,0-7.38-3.4c-.92-.17-4.33-.84-3.85-.28-.72-.58-1.4-1.48-2.13-2a18.11,18.11,0,0,0-6.28-2.79c-11.78-2.78-25.35,4.08-28.79,16.88-2.4,9,.64,18.18-1.94,27.3-2,7.13-4.27,35-.64,42,.4.77,2.92,11.44,3.64,11.08,9.1-4.5,16.65,3,25.42,3.93,11,1.16,27.47-2.68,33.11-7.11C236.63,243.67,235.41,212.61,234.1,207.23Z"/><path class="cls-19" d="M218.88,189.57s8.13-4.33,9.28,1.86-2.56,12.29-9.2,8.93S218.88,189.57,218.88,189.57Z"/><path class="cls-20" d="M223.45,199.19a.67.67,0,1,0,.67-.67A.67.67,0,0,0,223.45,199.19Z"/><path class="cls-21" d="M221.3,194.61c.54-2,1.19-3.17,2-3.53a3.31,3.31,0,0,1,4.17,1.47.39.39,0,0,1-.14.53.38.38,0,0,1-.52-.13,3,3,0,0,0-2-1.37c1.18,1.22,2.44,3.46.79,5.51a.38.38,0,0,1-.54,0,.38.38,0,0,1-.05-.54c1.86-2.31-1-4.77-1.17-4.87l0,0-.24.09c-.25.12-.92.64-1.56,3a.39.39,0,0,1-.37.29l-.1,0A.37.37,0,0,1,221.3,194.61Z"/><path class="cls-19" d="M182.77,189.57s-8.14-4.33-9.29,1.86,2.56,12.29,9.2,8.93S182.77,189.57,182.77,189.57Z"/><path class="cls-20" d="M178.2,199.19a.67.67,0,1,1-.67-.67A.67.67,0,0,1,178.2,199.19Z"/><path class="cls-21" d="M180.35,194.61c-.55-2-1.2-3.17-2-3.53a3.31,3.31,0,0,0-4.17,1.47.39.39,0,0,0,.66.4,3,3,0,0,1,2-1.37c-1.19,1.22-2.45,3.46-.8,5.51a.41.41,0,0,0,.3.14.38.38,0,0,0,.24-.09.39.39,0,0,0,.06-.54c-1.87-2.31,1-4.77,1.16-4.87l0,0,.24.09c.25.12.92.64,1.57,3a.38.38,0,0,0,.37.29l.1,0A.39.39,0,0,0,180.35,194.61Z"/><path class="cls-19" d="M208,224.24,206.3,223v-7a6,6,0,0,0-12,0v7.35l-1.7.86-1,11.07h19.66Z"/><g class="cls-51"><g class="cls-23"><path class="cls-19" d="M227.86,166.62H174.05s-2.36,31.23,1.28,39.49c2,4.5,8.57,9.07,14.82,12.91a21.07,21.07,0,0,0,21.93-.08c6.12-3.82,12.54-8.36,14.5-12.83C230.22,197.85,227.86,166.62,227.86,166.62Z"/></g></g><path class="cls-19" d="M222.82,181.89A10.8,10.8,0,0,0,212,171.41h-22.2a11,11,0,0,0-11,10.68c-.25,8.45.84,19.53,2.54,23.75,1.58,3.92,5.83,7.9,10.83,11.25a15.65,15.65,0,0,0,17.52-.07c4.89-3.33,9-7.29,10.57-11.18C222,201.59,223.07,190.37,222.82,181.89Z"/><g class="cls-52"><path class="cls-25" d="M209.08,205.41c-.32-1-1.52-.75-3.64.39a11.67,11.67,0,0,1-9.23.24c-2.18-1-3.26-1.08-3.65-.2s2,6.09,6.63,6.72a11.77,11.77,0,0,0,3.56-.09C207.32,211.64,209.45,206.55,209.08,205.41Z"/><path class="cls-26" d="M194.54,204.71s.08,3.62,5.77,3.73,7.37-1.65,7.39-4.16Z"/><path class="cls-19" d="M196.64,211.9s3.92-2.77,10-.17l-4.68,3.57Z"/><g class="cls-27"><path class="cls-19" d="M196.64,211.9s3.92-2.77,10-.17l-4.68,3.57Z"/></g></g><g class="cls-23"><path class="cls-19" d="M196.7,196.53s-.06.24-.16.67c0,.21-.1.47-.14.76a3,3,0,0,0,0,.94c0,.2.46.46.78.68a11.94,11.94,0,0,0,1.13.62,5.63,5.63,0,0,0,2.6.65,4.39,4.39,0,0,0,.69-.1c.23-.05.45-.11.67-.18a9.8,9.8,0,0,0,1.28-.53,10,10,0,0,0,1.12-.65,2.36,2.36,0,0,0,.44-.36c.07-.07.11-.1.13-.17a.93.93,0,0,0,0-.23,9.74,9.74,0,0,0,0-1.77l-.06-.68s.08.24.19.66l.18.77a6,6,0,0,1,.13,1,1.86,1.86,0,0,1,0,.34.76.76,0,0,1-.18.33,3.05,3.05,0,0,1-.47.48,8.2,8.2,0,0,1-1.13.82,9.2,9.2,0,0,1-1.34.64,6.45,6.45,0,0,1-.75.22,4.81,4.81,0,0,1-.79.13,5.6,5.6,0,0,1-3-.81,7.41,7.41,0,0,1-1.14-.79,5.19,5.19,0,0,1-.49-.43,2.62,2.62,0,0,1-.22-.25A.75.75,0,0,1,196,199a2.62,2.62,0,0,1,.16-1.08c.09-.3.18-.55.26-.75C196.58,196.75,196.7,196.53,196.7,196.53Z"/></g><path class="cls-28" d="M183.78,202.94a.05.05,0,0,0,0-.1.05.05,0,1,0,0,.1Z"/><path class="cls-29" d="M192.58,190.44a2.23,2.23,0,1,1-2.23-2.23A2.23,2.23,0,0,1,192.58,190.44Z"/><path class="cls-29" d="M213.52,190.44a2.23,2.23,0,1,1-2.23-2.23A2.23,2.23,0,0,1,213.52,190.44Z"/><path class="cls-30" d="M184.53,185.81a11.46,11.46,0,0,1,6.7-4.2"/><path class="cls-30" d="M217.11,185.81a11.43,11.43,0,0,0-6.7-4.2"/><path class="cls-32" d="M206.3,167.25a21.25,21.25,0,0,0,16.63,17.64l1.19-7.53S217.4,167.12,206.3,167.25Z"/><path class="cls-32" d="M209.06,163.61s4.16,10.27-6.93,16.67c-10.07,5.81-14.25-6.09-23.28,7.82a17.06,17.06,0,0,1,.61-16.69C182.25,166.54,201,159.12,209.06,163.61Z"/><path class="cls-19" d="M246.93,153.6s-1.48-5.93-.74-6.19,1.36-.37,1.81.66,2.11,4.67,2.11,4.67l1.47-3.25s1.67-7.83,2-8.74a1,1,0,0,1,2,.24c0,.63-1,9.11-1,9.11s3.32-9.52,4-9.95,1.95,0,1.7,1.53c-.08.51-2.48,9.69-2.48,9.69s2.94-5.68,3.78-6.41a1,1,0,0,1,1.75.68c.11.74-3.55,8.86-3.55,8.86a24.54,24.54,0,0,1,2.77-2.66.89.89,0,0,1,1.35,1c-.14.89-5.46,8.57-5.46,8.57L256.74,168l-8.61-3a35.29,35.29,0,0,0,.74-4.42C248.69,160.21,246.93,153.6,246.93,153.6Z"/><polygon class="cls-32" points="246.72 163.54 247.34 161.1 258.81 163.86 257.79 166.41 246.72 163.54"/><path class="cls-16" d="M247.57,219.66c6-14.73,11.24-53.44,11.24-53.44L246.2,163.1s-8.35,29.67-12.8,38.77c-2.14,4.38-10.6,17.3-14.19,19.67,2.42,10,7.17,19.49,12.63,27.91l-.08-.88S242.26,232.62,247.57,219.66Z"/><path class="cls-31" d="M211.1,287l4.11-58.36c-16.4,9.47-27.33.25-27.33.25L192.54,287Z"/><path class="cls-16" d="M190.35,289.08c-.12-3,6.11-8.27,6.09-11.59-.27-38.92-3.63-48.62-3.86-53.25l-12.48,3.88c-11.86,3.69-18,13.47-18.42,25.88L160,287Z"/><path class="cls-16" d="M231.84,249.45a108.5,108.5,0,0,1-7.52-13.51,11.67,11.67,0,0,0-1.27-2.88,75.94,75.94,0,0,1-3.84-11.52,2.72,2.72,0,0,1-.71.35c-5.39,1.4-10.5,2.35-10.5,2.35v.19c-.28,5-2.84,26.09-3.84,53.06-.12,3.31-.25,6.52-.37,9.55h31.58Z"/><polygon class="cls-53" points="178.2 287.04 174.87 251.71 174.87 287.04 178.2 287.04"/><path class="cls-20" d="M153.86,249.45h89.9a4.93,4.93,0,0,1,4.93,4.93V307.6a0,0,0,0,1,0,0H148.93a0,0,0,0,1,0,0V254.38A4.93,4.93,0,0,1,153.86,249.45Z"/><path class="cls-54" d="M205,282.85a6.23,6.23,0,1,1-6.22-6.22A6.22,6.22,0,0,1,205,282.85Z"/><path class="cls-20" d="M286.61,269.94,284,307.6l59.94-.19s-1.48-27.73-5.66-36.91S286.61,269.94,286.61,269.94Z"/><path class="cls-16" d="M299.61,212.33h3.95l16.34,1.26,8.44,1.58,13,37.18,3.43,38.92s-40.82,4.08-61.61,0l.68-61.74Z"/><path class="cls-19" d="M285.73,143.78c-.63-.42-1.17-.65-1.83.19s-3,3.81-3,3.81l-.59-3.34s.3-7.62.21-8.55a1,1,0,0,0-1.92-.25c-.2.57-1.28,8.64-1.28,8.64s-.82-9.58-1.37-10.14-1.79-.48-1.93,1c-.05.49,0,9.53,0,9.53s-1.37-5.94-2-6.81a1,1,0,0,0-1.78.21c-.27.66,1.19,9,1.19,9a22.09,22.09,0,0,0-1.93-3.1.84.84,0,0,0-1.48.59c-.09.85,3,9.2,3,9.2l.13,6.49,8.64-.71a35.35,35.35,0,0,1,.36-4.25c.26-.3,3.44-6,3.44-6S286.35,144.21,285.73,143.78Z"/><path class="cls-16" d="M283.82,229.53l14.39-2.92,1.4-14.28c.37.15-2.8-2.4-4.63-4.58-5-6-9.3-8.79-9.89-11.6-1.46-7-3.48-41.84-3.48-41.84l-14.39,1.39s-1,34.24,1.57,49.46C270,212.48,281.2,224.26,283.82,229.53Z"/><path class="cls-20" d="M314.7,153.91c-.22-2.59-2.72-4.39-5.18-5.23-6.45-2.18-14.47.44-17.59,6.49-2.48,4.82-1.67,10.58-2.06,16"/><path class="cls-20" d="M316.13,153.91c-.48-8.83-12.79-9.35-18.9-6.43a14.87,14.87,0,0,0-7.87,8.63c-1.33,4.21-2.08,11.42,0,15.38a.65.65,0,0,0,1.11,0c1.43-2.19,1.1-4.35,1.26-6.91.26-4,1-8.06,3.94-11,4.35-4.28,14.94-5.69,17.84,1,.57,1.32,2.74.63,2.66-.72Z"/><path class="cls-20" d="M303.67,195.2a29.58,29.58,0,0,0-3.93-5.43,17.18,17.18,0,0,1-4.22-7.4c-.68-2.32-1.94-5-4.24-5.24a.82.82,0,0,0-1.18-1c-4,1.8-3.76,6.07-4.51,9.76-1,5.07-5.31,8.42-6.48,13.37-.24,1-.47,2.32.34,3.16,1.08,1.12,1.37.21,2.52.24,3.27.07,4.78,2.34,7.64,3.15,1.24.34,2.85.29,4,.52,1.44.27,2.81.86,4.27,1.07,2.73.4,5.87,0,7.28-2.74C306.79,201.67,305.15,197.91,303.67,195.2Z"/><path class="cls-20" d="M289,177.4a88.34,88.34,0,0,1-.1-9.06,23,23,0,0,1,1-6.71,15.87,15.87,0,0,1,5.61-7.25c2.47-1.82,5.59-3.08,8.43-2.15a8.9,8.9,0,0,1,5,4.87,28.71,28.71,0,0,1,2,7.08"/><path class="cls-20" d="M290,177.4c.53-6.76-.28-15.29,5.13-20.25,3.88-3.55,9.21-4.74,12,.74,1.17,2.3,1.18,4.85,2.56,7,.63,1,2.46,1,2.7-.35,1.52-8.35-6.44-17.18-14.84-13.44-10.65,4.73-11.26,16.54-9.42,26.52.21,1.11,1.79.75,1.87-.25Z"/><path class="cls-20" d="M344,206.34a1.09,1.09,0,0,0-.19-.45,17,17,0,0,0-2.72-3.15c-2.84-2.73-2.62-5.7-1-8.81s1.85-6.73,2.36-10.37c1-7,0-25.29-4.49-31-3.78-4.85-26.68-18.89-35.73-3.43-2.45,4.18,10.35,7.17,9.68,12.52-.87,7,6.95,9.92,11.8,12.52,8.94,4.81,8.64,15.21.75,21-2.71,2-5.75,2.79-8.77,4.12-1.7.75-4.41,2.24-4.53,4.44a3.74,3.74,0,0,0,1.85,3.1c1.23.66,2.49.39,3.75,1.05,1.66.88,2.38,2.61,3.94,3.71,2.35,1.65,4.23,1.31,6.72.48,3.38-1.12,5.79,1.8,9.26,1.7.47,0,.94-.37,1.37-.35.76,0,1.66.53,2.44.53,1.06,0,1.15.22,2.17-.59C344.77,211.68,344.84,208.59,344,206.34Z"/><path class="cls-19" d="M328,182.6s8.76-2.28,8.44,3.89-5.26,11.16-10.82,6.43S328,182.6,328,182.6Z"/><path class="cls-21" d="M329.17,188c1-1.8,1.86-2.75,2.7-2.91a3.24,3.24,0,0,1,3.65,2.35.38.38,0,0,1-.25.47.37.37,0,0,1-.47-.24,3,3,0,0,0-1.56-1.76c.85,1.44,1.55,3.87-.5,5.45a.35.35,0,0,1-.31.06.38.38,0,0,1-.22-.13.39.39,0,0,1,.07-.53c2.31-1.79.1-4.8,0-4.92a.08.08,0,0,1,0,0,1,1,0,0,0-.25,0c-.27.05-1,.4-2.19,2.53a.37.37,0,0,1-.42.19l-.09,0A.37.37,0,0,1,329.17,188Z"/><path class="cls-19" d="M294.58,174.73s-6.37-6.44-9.25-1-1.18,12.27,6,11.06S294.58,174.73,294.58,174.73Z"/><path class="cls-21" d="M290.84,178.74c.08-2.05-.2-3.32-.84-3.89a3.23,3.23,0,0,0-4.33.17.38.38,0,0,0,.5.56,3,3,0,0,1,2.23-.71c-1.46.8-3.3,2.53-2.35,4.93a.4.4,0,0,0,.24.22.36.36,0,0,0,.25,0,.37.37,0,0,0,.21-.49c-1.07-2.71,2.37-4.17,2.52-4.23l0,0a1.56,1.56,0,0,1,.2.16c.21.18.68.87.59,3.3a.37.37,0,0,0,.26.37l.1,0A.39.39,0,0,0,290.84,178.74Z"/><path class="cls-19" d="M317.52,205.1A5.93,5.93,0,0,0,305.76,204l-.6,6.48c-.29,3.25,2.11,4.52,5.36,4.81h0a5.91,5.91,0,0,0,6.41-5.35Z"/><g class="cls-55"><g class="cls-23"><path class="cls-19" d="M334.59,153.89l-26.41.78h0l-26.41.77s-1.41,30.72,2.4,38.73c2.07,4.35,8.68,8.65,14.92,12.24a20.7,20.7,0,0,0,21.52-.71c5.9-3.93,12.06-8.57,13.86-13C337.8,184.47,334.59,153.89,334.59,153.89Z"/></g></g><path class="cls-19" d="M333.53,176.16a10.61,10.61,0,0,0-7.93-12.47l-10.69-2.55h0l-10.51-2.51a10.8,10.8,0,0,0-12.94,7.67c-2.16,8-3.66,18.85-3,23.27.61,4.1,3.76,8.88,7.77,13.21A15.36,15.36,0,0,0,313,206.72c5.43-2.06,10.26-4.91,12.65-8.27C328.24,194.78,331.83,184.32,333.53,176.16Z"/><g class="cls-56"><path class="cls-25" d="M298.51,195.2c.37-.92,1.32-.56,2.94.7A8.47,8.47,0,0,0,309,197c1.88-.71,2.78-.71,3,.16s-2.25,5.49-6.07,5.65a8.58,8.58,0,0,1-2.9-.41C299.35,201.18,298.1,196.23,298.51,195.2Z"/><path class="cls-26" d="M310.46,195.9s-.41,3.37-5.08,2.95-5.86-2.23-5.63-4.57Z"/><path class="cls-19" d="M308,202.41s-2.93-2.95-8.13-1.08l3.48,3.77Z"/><g class="cls-27"><path class="cls-19" d="M308,202.41s-2.93-2.95-8.13-1.08l3.48,3.77Z"/></g></g><g class="cls-23"><path class="cls-19" d="M301.71,185.48l-.3.61c-.09.19-.2.42-.31.69a3.14,3.14,0,0,0-.23.9c0,.19.34.54.59.82s.61.57.94.86a5.65,5.65,0,0,0,2.34,1.21,4.27,4.27,0,0,0,.68.06c.23,0,.46,0,.68,0a9.6,9.6,0,0,0,1.34-.22,8.31,8.31,0,0,0,1.22-.36,2.69,2.69,0,0,0,.51-.24c.07,0,.12-.07.15-.14a.93.93,0,0,0,.1-.2,10.47,10.47,0,0,0,.36-1.7l.1-.67s0,.25,0,.68c0,.21,0,.47,0,.77a5,5,0,0,1-.11,1,1.15,1.15,0,0,1-.11.31.85.85,0,0,1-.25.28,3.19,3.19,0,0,1-.55.35,8.44,8.44,0,0,1-1.27.52,9,9,0,0,1-1.43.31c-.25,0-.51,0-.77,0a4.84,4.84,0,0,1-.78-.06,5.49,5.49,0,0,1-2.66-1.46,6.59,6.59,0,0,1-.91-1,4.49,4.49,0,0,1-.37-.52c-.05-.09-.11-.2-.15-.29a.7.7,0,0,1-.06-.36,2.58,2.58,0,0,1,.39-1c.15-.26.3-.48.42-.65C301.55,185.67,301.71,185.48,301.71,185.48Z"/></g><path class="cls-28" d="M291.82,185.77a.05.05,0,0,0,0-.1.05.05,0,0,0,0,.1Z"/><path class="cls-29" d="M300.13,177.74a2.19,2.19,0,1,1-1.56-2.67A2.19,2.19,0,0,1,300.13,177.74Z"/><path class="cls-29" d="M320,183a2.19,2.19,0,1,1-1.56-2.68A2.19,2.19,0,0,1,320,183Z"/><path class="cls-30" d="M294.77,170.87a11.17,11.17,0,0,1,7.49-2"/><path class="cls-30" d="M325.36,180.21a11.21,11.21,0,0,0-5.09-5.86"/><path class="cls-20" d="M338,177.86"/><path class="cls-20" d="M338,179.08a1.22,1.22,0,0,0,0-2.44,1.22,1.22,0,0,0,0,2.44Z"/><path class="cls-20" d="M331.25,159c-3.91-4.55-13.46-9.2-19.44-6.22-4.92,2.45-5.6,11.23-3.16,15.48,4.78,8.32,20.54,3.84,23.17,13.65.12.44.76.25.68-.19,0-.07,0-.13-.05-.2l1.48-1.51c.49.41,1.44.34,1.54-.41C336.45,172.88,335.84,164.32,331.25,159Z"/><path class="cls-20" d="M309,158.46a11,11,0,0,1-7.2,4.87c-1.71.32-3.52.23-5.16.84a10.27,10.27,0,0,0-6,6c-.21.53-.93,1.11-1.18.61a.87.87,0,0,1-.06-.32,24.5,24.5,0,0,1,2.05-10.89c1.6-3.63,4.93-6.74,8.89-7s8.07,3.19,7.61,7.13"/><path class="cls-20" d="M308.13,157.57c-1.69,1.71-3.21,3.41-5.6,4.14-2.09.65-4.33.44-6.4,1.2a11.17,11.17,0,0,0-3.67,2.27c-.73.68-3.22,3.2-2.95,4.29l1.29,1c.07-.64.12-1.28.14-1.93a28.88,28.88,0,0,1,.47-3.82,18.13,18.13,0,0,1,2.47-6.25c3.67-5.41,11.52-5.77,12.64,1.64.22,1.45,2.64,1.41,2.9,0,1-5.7-5.06-10-10.34-9-6.56,1.21-9.89,8-10.82,14-.26,1.61-1.15,5.47.41,6.74,1.25,1,2.39.08,3.14-1,1.43-2,2.06-3.85,4.52-5,2.18-1,4.67-.72,6.95-1.37a10.9,10.9,0,0,0,6.82-5.34c.6-1.23-.92-2.58-2-1.52Z"/><polygon class="cls-20" points="302.94 208.06 311.11 209.28 319.17 208.91 319.64 216.42 311.39 216.15 302.27 215.07 302.94 208.06"/><polygon class="cls-57" points="302.94 208.06 311.11 209.28 319.17 208.91 319.64 216.42 311.39 216.15 302.27 215.07 302.94 208.06"/><path class="cls-40" d="M317.2,260.62s17.71,10.51,26.14,13.74l-.45-4.87Z"/><path class="cls-19" d="M314.24,237.5c-.66.37-1.11.76-.64,1.72s2.08,4.41,2.08,4.41l-3.27-.93s-6.7-3.63-7.57-4-1.9.78-1.08,1.61c.43.44,7.19,5,7.19,5s-8.95-3.48-9.7-3.23-1.22,1.4.05,2.18c.42.26,8.56,4.19,8.56,4.19s-5.93-1.37-7-1.22a1,1,0,0,0-.59,1.69c.47.53,8.61,2.9,8.61,2.9a22.61,22.61,0,0,0-3.63.37.85.85,0,0,0-.12,1.59c.73.45,9.59,1.35,9.59,1.35l5.88,2.74,3.17-8.07a35.06,35.06,0,0,1-3.65-2.19c-.16-.37-3.87-5.73-3.87-5.73S314.89,237.13,314.24,237.5Z"/><path class="cls-16" d="M328.34,215.17s8,1.41,11.85,6.35c3.17,4.11,18.24,37.18,15.7,42-.76,1.44-2.24,10.28-7.31,9.07-12-2.86-31.38-12-31.38-12L324,245.88l14,3.44L332.55,232Z"/><polygon class="cls-40" points="324.01 245.88 337.99 248.76 337.99 249.32 324.01 245.88"/><path class="cls-58" d="M258.57,272v-6.47a2.25,2.25,0,0,0-2.25-2.25h0a2.24,2.24,0,0,0-2.24,2.25v8.55a2.54,2.54,0,0,0,2.54,2.54h9.63v-4.49h-7.54A.13.13,0,0,1,258.57,272Z"/><path class="cls-59" d="M273.31,282.5V276a2.25,2.25,0,0,1,2.25-2.25h0A2.25,2.25,0,0,1,277.8,276v8.55a2.55,2.55,0,0,1-2.55,2.54h-9.62v-4.48h7.54A.14.14,0,0,0,273.31,282.5Z"/><path class="cls-60" d="M258.57,272v-6.47a2.25,2.25,0,0,0-2.25-2.25h0a2.24,2.24,0,0,0-2.24,2.25v8.55a2.54,2.54,0,0,0,2.54,2.54h9.63v-4.49h-7.54A.13.13,0,0,1,258.57,272Z"/><path class="cls-61" d="M273.31,282.5V276a2.25,2.25,0,0,1,2.25-2.25h0A2.25,2.25,0,0,1,277.8,276v8.55a2.55,2.55,0,0,1-2.55,2.54h-9.62v-4.48h7.54A.14.14,0,0,0,273.31,282.5Z"/><path class="cls-62" d="M266.92,256.85h0a3.88,3.88,0,0,1,3.88,3.87v33.54a3.88,3.88,0,0,1-3.88,3.88h0a3.88,3.88,0,0,1-3.88-3.88V260.72A3.88,3.88,0,0,1,266.92,256.85Z"/><path class="cls-63" d="M266.92,256.85h0a3.88,3.88,0,0,1,3.88,3.87v33.54a3.88,3.88,0,0,1-3.88,3.88h0a3.88,3.88,0,0,1-3.88-3.88V260.72A3.88,3.88,0,0,1,266.92,256.85Z"/><polygon class="cls-20" points="275.56 306.65 258.73 306.65 257.87 291.53 276.42 291.53 275.56 306.65"/><rect class="cls-20" x="256.32" y="289.15" width="21.64" height="5.21"/><rect class="cls-64" x="256.32" y="289.15" width="21.64" height="5.21"/><rect class="cls-20" x="256.32" y="289.15" width="21.64" height="5.21"/><rect class="cls-65" x="256.32" y="289.15" width="21.64" height="5.21"/><rect class="cls-20" x="48.04" y="306.65" width="324.88" height="5.66"/><rect class="cls-66" x="48.04" y="306.65" width="324.88" height="5.66"/></g></g></g></svg>